<svg xmlns="http://www.w3.org/2000/svg" width="256" height="256" viewBox="0 0 100 100"><rect width="100" height="100" rx="20" fill="#c3d1d1"></rect><path d="M27.21 84.66L21.21 84.66L30.20 63.63Q27.45 63.49 25.59 62.79Q23.73 62.08 22.59 61.05Q21.46 60.01 20.97 58.75Q20.49 57.49 20.49 56.19L20.49 56.19Q20.49 53.72 21.60 52.18Q22.71 50.63 24.28 49.71Q25.85 48.79 27.59 48.45Q29.33 48.11 30.59 48.11L30.59 48.11Q33.73 48.11 36.44 48.98L36.44 48.98L41.66 36.85Q42.72 34.29 43.84 31.70Q44.95 29.12 45.82 26.77Q46.69 24.43 47.24 22.45Q47.80 20.46 47.80 19.11L47.80 19.11Q47.80 18.24 47.44 17.68Q47.08 17.13 46.35 17.13L46.35 17.13Q42.92 17.66 38.47 20.42L38.47 20.42Q36.59 21.58 34.29 23.36Q31.99 25.15 29.31 27.74Q26.63 30.33 23.61 33.78Q20.59 37.24 17.25 41.78L17.25 41.78L16.23 35.26Q20.92 30.42 25.49 26.72Q30.06 23.03 34.14 20.49Q38.23 17.95 41.59 16.65Q44.95 15.34 47.22 15.34L47.22 15.34Q49.93 15.34 51.09 16.96Q52.25 18.58 52.25 21.09L52.25 21.09Q52.25 22.74 51.86 24.65Q51.47 26.56 50.87 28.61Q50.27 30.66 49.47 32.77Q48.67 34.87 47.80 36.85L47.80 36.85L41.47 51.55Q43.45 52.95 45.02 54.91Q46.59 56.86 47.85 59.33L47.85 59.33L59.98 59.33L77.67 17.13L83.77 17.13L66.07 59.33L71.05 59.33L69.12 63.63L64.28 63.63L55.49 84.66L49.35 84.66L49.40 84.56Q49.49 82.97 49.54 81.49Q49.59 80.02 49.59 78.62L49.59 78.62Q49.59 74.07 49.08 70.38Q48.57 66.68 47.61 63.63L47.61 63.63L36.25 63.63L27.21 84.66ZM23.34 54.98L23.34 54.98Q23.34 55.75 23.70 56.53Q24.07 57.30 24.84 57.93Q25.61 58.56 26.80 58.94Q27.98 59.33 29.67 59.33L29.67 59.33L32.04 59.33L35.72 50.77Q33.20 50 30.20 50L30.20 50Q27.01 50 25.18 51.40Q23.34 52.80 23.34 54.98ZM51.57 77.55L51.57 77.55Q51.57 78.04 51.57 78.47Q51.57 78.91 51.52 79.39L51.52 79.39L58.15 63.63L49.59 63.63Q51.57 69.82 51.57 77.55ZM38.13 59.33L45.77 59.33Q43.74 55.46 40.74 53.29L40.74 53.29L38.13 59.33Z" fill="#6f6969"></path></svg>