<svg width="154" height="39" viewBox="0 0 154 39" fill="none" xmlns="http://www.w3.org/2000/svg">
<path d="M5.696 7.48C6.50667 7.48 7.12533 7.72533 7.552 8.216C8 8.70667 8.224 9.47467 8.224 10.52C8.224 11.5653 8.08533 12.76 7.808 14.104C7.53067 15.4267 7.14667 16.6853 6.656 17.88L5.952 17.336C7.488 16.9733 9.07733 16.8027 10.72 16.824C12.384 16.8453 13.888 17.0587 15.232 17.464L14.464 17.656C14.1653 16.376 13.9413 15.1067 13.792 13.848C13.664 12.568 13.6 11.4373 13.6 10.456C13.6 9.368 13.8133 8.568 14.24 8.056C14.688 7.544 15.36 7.288 16.256 7.288C17.1307 7.288 17.8133 7.55467 18.304 8.088C18.7947 8.62133 19.1573 9.44267 19.392 10.552C19.6267 11.576 19.808 12.824 19.936 14.296C20.064 15.7467 20.128 17.2293 20.128 18.744C20.128 20.2373 20.0747 21.7627 19.968 23.32C19.8827 24.856 19.7333 26.296 19.52 27.64C19.3067 28.8773 18.9333 29.7733 18.4 30.328C17.888 30.8827 17.1413 31.16 16.16 31.16C15.1573 31.16 14.432 30.872 13.984 30.296C13.536 29.72 13.312 28.7173 13.312 27.288C13.312 26.1147 13.408 24.8987 13.6 23.64C13.8133 22.36 14.112 21.1013 14.496 19.864L15.36 20.76C13.9093 21.1013 12.384 21.272 10.784 21.272C9.20533 21.2507 7.66933 21.08 6.176 20.76L6.432 19.768C6.90133 21.0267 7.31733 22.328 7.68 23.672C8.04267 24.9947 8.224 26.328 8.224 27.672C8.224 28.952 7.94667 29.8693 7.392 30.424C6.83733 30.9787 6.08 31.256 5.12 31.256C4.33067 31.256 3.68 31.0427 3.168 30.616C2.67733 30.1893 2.32533 29.4213 2.112 28.312C1.96267 27.3947 1.83467 26.2533 1.728 24.888C1.64267 23.5013 1.6 22.0507 1.6 20.536C1.6 18.7013 1.67467 16.9307 1.824 15.224C1.99467 13.496 2.21867 12.0133 2.496 10.776C2.73067 9.688 3.104 8.86667 3.616 8.312C4.128 7.75733 4.82133 7.48 5.696 7.48ZM31.5115 31.096C29.7195 31.096 28.1515 30.7227 26.8075 29.976C25.4848 29.208 24.4608 28.12 23.7355 26.712C23.0102 25.304 22.6475 23.6293 22.6475 21.688C22.6475 19.6613 23.0102 17.8907 23.7355 16.376C24.4822 14.8613 25.5275 13.6773 26.8715 12.824C28.2368 11.9707 29.8155 11.544 31.6075 11.544C33.5275 11.544 35.1915 11.96 36.5995 12.792C38.0075 13.6027 39.0955 14.744 39.8635 16.216C40.6528 17.688 41.0475 19.4053 41.0475 21.368C41.0475 23.3733 40.6528 25.1013 39.8635 26.552C39.0742 28.0027 37.9648 29.1227 36.5355 29.912C35.1275 30.7013 33.4528 31.096 31.5115 31.096ZM31.9595 25.88C33.0902 25.88 33.9862 25.432 34.6475 24.536C35.3088 23.64 35.6395 22.456 35.6395 20.984C35.6395 19.4907 35.3088 18.3067 34.6475 17.432C33.9862 16.536 33.0902 16.088 31.9595 16.088C30.7862 16.088 29.8582 16.536 29.1755 17.432C28.5142 18.3067 28.1835 19.4907 28.1835 20.984C28.1835 22.456 28.5142 23.64 29.1755 24.536C29.8582 25.432 30.7862 25.88 31.9595 25.88Z" fill="#F8F3EC"/>
<path d="M77.2865 31.32C76.7745 31.32 76.3478 31.1813 76.0065 30.904C75.6865 30.6053 75.4412 30.1467 75.2705 29.528C75.1212 28.8667 74.9825 27.8107 74.8545 26.36C74.7265 24.888 74.6625 23.2667 74.6625 21.496C74.6625 19.576 74.7158 17.7093 74.8225 15.896C74.9292 14.0827 75.0998 12.4827 75.3345 11.096C75.5265 10.0507 75.8252 9.28267 76.2305 8.792C76.6572 8.28 77.2545 8.024 78.0225 8.024C78.5772 8.024 79.0572 8.17333 79.4625 8.472C79.8678 8.77066 80.1665 9.28267 80.3585 10.008C80.5718 10.712 80.6785 11.6933 80.6785 12.952C80.6785 13.4427 80.6572 13.9867 80.6145 14.584C80.5932 15.1813 80.5505 15.8427 80.4865 16.568H80.6145C82.0225 14.3067 83.3025 12.5253 84.4545 11.224C85.6278 9.90133 86.6945 8.96267 87.6545 8.408C88.6145 7.85333 89.4892 7.576 90.2785 7.576C91.0252 7.576 91.6012 7.832 92.0065 8.344C92.4118 8.83467 92.6145 9.45333 92.6145 10.2C92.6145 11.4587 91.8358 12.8347 90.2785 14.328C88.7425 15.8213 86.2465 17.5493 82.7905 19.512L83.0465 18.808C86.0332 20.728 88.2625 22.4667 89.7345 24.024C91.2278 25.5813 91.9745 27.0533 91.9745 28.44C91.9745 29.208 91.7292 29.8267 91.2385 30.296C90.7692 30.744 90.0972 30.968 89.2225 30.968C88.3052 30.968 87.3772 30.68 86.4385 30.104C85.4998 29.5067 84.5292 28.5147 83.5265 27.128C82.5452 25.7413 81.4892 23.8747 80.3585 21.528H80.2305C80.2732 21.9333 80.2945 22.3493 80.2945 22.776C80.3158 23.2027 80.3265 23.6187 80.3265 24.024C80.3265 26.648 80.1025 28.5253 79.6545 29.656C79.2278 30.7653 78.4385 31.32 77.2865 31.32ZM104.133 31.256C101.658 31.256 99.685 30.904 98.213 30.2C96.7623 29.496 95.7063 28.4827 95.045 27.16C94.405 25.8373 94.085 24.2587 94.085 22.424C94.085 20.0987 94.533 18.1253 95.429 16.504C96.3463 14.8613 97.5943 13.6027 99.173 12.728C100.773 11.8533 102.586 11.416 104.613 11.416C107.024 11.416 108.784 11.9387 109.893 12.984C111.002 14.008 111.557 15.3627 111.557 17.048C111.557 18.392 111.194 19.5547 110.469 20.536C109.765 21.5173 108.784 22.2747 107.525 22.808C106.266 23.32 104.816 23.576 103.173 23.576C102.298 23.576 101.456 23.4907 100.645 23.32C99.8557 23.128 99.141 22.872 98.501 22.552L99.269 20.984C99.205 21.496 99.173 22.008 99.173 22.52C99.173 23.8 99.589 24.7173 100.421 25.272C101.253 25.8053 102.426 26.072 103.941 26.072C105.221 26.072 106.266 25.9547 107.077 25.72C107.888 25.464 108.581 25.2187 109.157 24.984C109.733 24.7493 110.288 24.632 110.821 24.632C111.162 24.632 111.482 24.728 111.781 24.92C112.101 25.0907 112.357 25.3467 112.549 25.688C112.762 26.0293 112.869 26.456 112.869 26.968C112.869 27.736 112.538 28.4507 111.877 29.112C111.216 29.752 110.234 30.2747 108.933 30.68C107.632 31.064 106.032 31.256 104.133 31.256ZM102.277 20.504C103.6 20.504 104.688 20.216 105.541 19.64C106.394 19.0427 106.821 18.3173 106.821 17.464C106.821 16.8453 106.597 16.3333 106.149 15.928C105.722 15.5013 105.061 15.288 104.165 15.288C103.312 15.288 102.522 15.4587 101.797 15.8C101.093 16.12 100.528 16.5467 100.101 17.08C99.6957 17.592 99.493 18.1573 99.493 18.776C99.493 19.3307 99.7383 19.7573 100.229 20.056C100.72 20.3547 101.402 20.504 102.277 20.504ZM124.477 31.256C122.002 31.256 120.029 30.904 118.557 30.2C117.106 29.496 116.05 28.4827 115.389 27.16C114.749 25.8373 114.429 24.2587 114.429 22.424C114.429 20.0987 114.877 18.1253 115.773 16.504C116.69 14.8613 117.938 13.6027 119.517 12.728C121.117 11.8533 122.93 11.416 124.957 11.416C127.367 11.416 129.127 11.9387 130.237 12.984C131.346 14.008 131.901 15.3627 131.901 17.048C131.901 18.392 131.538 19.5547 130.813 20.536C130.109 21.5173 129.127 22.2747 127.869 22.808C126.61 23.32 125.159 23.576 123.517 23.576C122.642 23.576 121.799 23.4907 120.989 23.32C120.199 23.128 119.485 22.872 118.845 22.552L119.613 20.984C119.549 21.496 119.517 22.008 119.517 22.52C119.517 23.8 119.933 24.7173 120.765 25.272C121.597 25.8053 122.77 26.072 124.285 26.072C125.565 26.072 126.61 25.9547 127.421 25.72C128.231 25.464 128.925 25.2187 129.501 24.984C130.077 24.7493 130.631 24.632 131.165 24.632C131.506 24.632 131.826 24.728 132.125 24.92C132.445 25.0907 132.701 25.3467 132.893 25.688C133.106 26.0293 133.213 26.456 133.213 26.968C133.213 27.736 132.882 28.4507 132.221 29.112C131.559 29.752 130.578 30.2747 129.277 30.68C127.975 31.064 126.375 31.256 124.477 31.256ZM122.621 20.504C123.943 20.504 125.031 20.216 125.885 19.64C126.738 19.0427 127.165 18.3173 127.165 17.464C127.165 16.8453 126.941 16.3333 126.493 15.928C126.066 15.5013 125.405 15.288 124.509 15.288C123.655 15.288 122.866 15.4587 122.141 15.8C121.437 16.12 120.871 16.5467 120.445 17.08C120.039 17.592 119.837 18.1573 119.837 18.776C119.837 19.3307 120.082 19.7573 120.573 20.056C121.063 20.3547 121.746 20.504 122.621 20.504ZM141.333 31.448C139.285 31.448 137.674 30.6693 136.501 29.112C135.349 27.5333 134.773 25.1333 134.773 21.912C134.773 18.712 135.338 16.376 136.469 14.904C137.599 13.4107 139.221 12.664 141.333 12.664C142.57 12.664 143.658 12.92 144.597 13.432C145.535 13.944 146.378 14.6693 147.125 15.608L146.741 15.736C146.591 14.904 146.431 14.0187 146.261 13.08C146.09 12.1413 145.951 11.256 145.845 10.424C145.759 9.592 145.717 8.93067 145.717 8.44C145.717 7.58666 145.877 6.936 146.197 6.488C146.538 6.01867 147.061 5.784 147.765 5.784C148.639 5.784 149.343 6.11467 149.877 6.776C150.431 7.43733 150.869 8.44 151.189 9.784C151.445 10.8293 151.669 12.088 151.861 13.56C152.053 15.032 152.202 16.5787 152.309 18.2C152.437 19.8 152.501 21.3253 152.501 22.776C152.501 24.9947 152.362 26.7333 152.085 27.992C151.829 29.2293 151.455 30.0933 150.965 30.584C150.474 31.0747 149.898 31.32 149.237 31.32C148.447 31.32 147.903 30.9893 147.605 30.328C147.327 29.6667 147.189 28.5893 147.189 27.096H147.733C147.157 28.4187 146.314 29.4747 145.205 30.264C144.117 31.0533 142.826 31.448 141.333 31.448ZM143.637 26.776C144.277 26.776 144.863 26.6053 145.397 26.264C145.93 25.9227 146.357 25.3893 146.677 24.664C146.997 23.9173 147.157 22.9893 147.157 21.88C147.157 20.4293 146.858 19.2453 146.261 18.328C145.663 17.4107 144.767 16.952 143.573 16.952C142.634 16.952 141.866 17.3573 141.269 18.168C140.671 18.9787 140.373 20.2053 140.373 21.848C140.373 23.2773 140.671 24.4613 141.269 25.4C141.866 26.3173 142.655 26.776 143.637 26.776Z" fill="#F8F3EC"/>
<path d="M55.2514 16.7856C55.2261 16.7856 55.1987 16.7793 55.1734 16.7772C54.7283 16.7518 54.6102 16.2456 54.684 15.9672C55.1396 14.2227 54.9139 12.6723 54.1672 10.6916C54.0132 10.2866 54.627 10.1811 54.8949 10.2887C55.1523 10.3921 55.3906 10.7633 55.494 11.0439C56.112 12.7166 56.285 14.4737 55.7745 16.3532C55.707 16.6063 55.5045 16.7919 55.2514 16.7856Z" fill="#EBDFCE"/>
<path d="M56.6141 18.4035C56.5677 18.4035 56.5213 18.395 56.4748 18.3803C56.4093 18.3605 56.3483 18.328 56.2954 18.2846C56.2424 18.2413 56.1985 18.1879 56.1662 18.1276C56.1339 18.0672 56.1138 18.0011 56.107 17.933C56.1003 17.8649 56.107 17.7961 56.1268 17.7306C56.7132 15.79 57.1414 12.6175 55.783 10.2339C55.6395 9.98286 56.0045 9.81833 56.2913 9.84575C56.9495 9.90481 57.3334 10.8899 57.4599 11.3286C58.0548 13.3768 57.8607 16.1148 57.1245 18.0322C57.0402 18.2579 56.8419 18.4098 56.6141 18.4035Z" fill="#EBDFCE"/>
<path d="M58.0189 19.9329C57.6603 19.8295 57.5928 19.357 57.6751 19.0807C59.3078 13.609 57.6646 10.2466 57.6519 10.2108C57.5507 9.94076 58.4366 9.57162 58.8732 10.6664C58.9365 10.8246 60.3941 14.4844 58.7509 19.5258C58.6728 19.7578 58.3944 20.0426 58.0189 19.9329ZM48.7292 28.0898C48.5774 27.9105 48.3875 27.6258 48.628 27.4655C49.0267 27.1976 50.3957 26.763 51.4904 25.278C51.6613 25.046 51.9503 24.9384 52.2013 25.0819C52.4523 25.2232 52.5641 25.5586 52.3974 25.7927C51.0685 27.6658 49.4507 28.1721 49.3853 28.2101C49.3051 28.2565 48.8811 28.2691 48.7292 28.0898ZM49.6089 28.8682C49.4992 28.594 50.1995 28.4737 50.1995 28.4737C50.5096 28.3556 51.7815 28.1172 52.7961 26.5205C52.9501 26.2779 53.2581 26.183 53.507 26.3264C53.758 26.4698 53.8445 26.7883 53.701 27.0373C53.0197 28.2312 51.6887 29.1255 50.7774 29.3428C50.2902 29.4588 49.7164 29.1361 49.6089 28.8682ZM51.3132 30.4312C50.9905 30.2604 50.8956 29.9482 51.1002 29.8807C52.3089 29.4905 53.6293 28.4822 54.2706 27.533C54.4309 27.2946 54.7557 27.2313 54.9941 27.3937C55.2324 27.554 55.2936 27.8789 55.1333 28.1172C54.3803 29.2521 53.6124 29.8258 52.3595 30.3701C52.1211 30.4734 51.6149 30.5915 51.3132 30.4312ZM52.8573 30.8974C53.6483 30.5346 54.9667 29.7837 55.7303 28.5033C55.8779 28.2565 56.1985 28.1742 56.4453 28.3219C56.6921 28.4695 56.7744 28.7901 56.6267 29.0369C56.0108 30.0705 55.1544 30.8869 53.8487 31.3467C53.2138 31.5724 52.5957 31.0197 52.8573 30.8974ZM47.9994 26.5837C46.2423 24.5123 45.9322 21.8081 46.3836 19.1292C46.487 18.5133 46.7127 18.1294 46.9363 18.1315C47.2253 18.1357 47.5037 19.1271 47.4193 19.665C47.0396 22.0844 47.7399 24.4575 49.2545 26.3032C49.3452 26.415 49.2165 26.7926 48.8938 26.9339C48.571 27.0731 48.2103 26.8326 47.9994 26.5837Z" fill="#EBDFCE"/>
<path d="M49.3388 25.4172C48.5436 24.6704 47.8855 22.3333 47.8834 21.2216C47.8834 20.9326 47.8855 20.5171 48.1745 20.5171C48.1745 20.5171 48.8199 20.6162 48.9275 21.2195C49.0815 22.0886 49.5624 24.084 50.364 25.0944C50.5433 25.3201 49.8809 25.9255 49.3388 25.4172Z" fill="#EBDFCE"/>
<path d="M58.0126 32.2241C57.095 32.2705 55.6859 32.0786 55.224 31.4458C55.0531 31.2137 55.359 30.9944 55.6374 31.0682C57.3165 31.5217 58.4787 31.7854 60.624 30.7434C61.0585 30.5324 61.5394 30.7539 61.3243 31.0577C61.0226 31.4859 59.6621 32.1503 58.0126 32.2241Z" fill="#E0D1C5"/>
<path d="M56.2913 30.3321C56.1289 30.0938 56.6119 29.6951 56.8988 29.7415C57.3523 29.8132 57.6666 29.8934 57.983 29.906C58.3079 29.9187 58.7065 29.8006 58.8289 29.8006C59.1179 29.8006 59.8097 30.0853 59.6326 30.3132C59.0841 31.0177 56.8039 31.081 56.2913 30.3321Z" fill="#E0D1C5"/>
<path d="M62.2419 18.4014C61.9782 18.4331 61.7293 18.258 61.6724 17.9943C61.6112 17.7138 61.7905 17.4353 62.071 17.3742C63.3135 17.1042 64.9335 16.1781 65.8785 14.691C66.1042 14.3345 66.8066 15.0032 66.429 15.5685C65.2942 17.275 63.8071 18.066 62.2925 18.393C62.2757 18.3951 62.2588 18.3993 62.2419 18.4014Z" fill="#EBDFCE"/>
<path d="M61.8812 20.2893C61.7458 20.3055 61.6094 20.268 61.5013 20.1848C61.3933 20.1016 61.3221 19.9793 61.3032 19.8442C61.2631 19.5595 61.4593 19.2937 61.7462 19.2536C63.7902 18.9604 66.024 17.4016 66.7749 15.8406C66.8994 15.5812 67.7621 16.3469 67.1462 17.2012C66.0472 18.722 63.8914 20.0003 61.896 20.2851C61.8896 20.2893 61.8854 20.2893 61.8812 20.2893Z" fill="#EBDFCE"/>
<path d="M62.0689 21.9473C61.9023 21.9663 61.7377 21.9811 61.5795 21.9874C61.2926 22.0001 61.048 21.7765 61.0353 21.4875C61.0227 21.1985 61.2462 20.9538 61.5352 20.9454C63.6256 20.8568 66.6652 19.4519 67.6081 17.7033C67.7452 17.4501 68.6185 18.1673 67.876 19.1081C67.3191 19.8147 66.4416 20.3927 65.4376 20.8969C64.3491 21.4453 63.1257 21.8229 62.0689 21.9473ZM63.7205 23.3733C63.5729 23.3901 63.4358 23.3986 63.3134 23.3944C63.2449 23.3929 63.1774 23.3779 63.1147 23.3503C63.0521 23.3226 62.9955 23.2829 62.9482 23.2333C62.901 23.1837 62.864 23.1252 62.8394 23.0613C62.8149 22.9973 62.8032 22.9292 62.8051 22.8607C62.8065 22.7922 62.8215 22.7247 62.8491 22.662C62.8768 22.5993 62.9166 22.5427 62.9662 22.4955C63.0158 22.4482 63.0742 22.4113 63.1382 22.3867C63.2021 22.3621 63.2703 22.3504 63.3387 22.3523C64.3027 22.3734 66.9057 21.3609 68.011 19.6249C68.1671 19.3823 68.743 20.2894 68.1207 20.9981C66.7749 22.5316 64.9925 23.2235 63.7205 23.3733ZM59.698 21.2997C59.6347 21.2997 59.5714 21.2892 59.5081 21.2639C59.2402 21.1605 59.1179 20.861 59.2107 20.5889C60.2844 17.4396 60.6598 13.7271 59.3098 10.3078C59.2044 10.0399 60.2337 10.004 60.5059 10.8035C61.7884 14.5877 61.4023 17.6505 60.1831 20.9665C60.1072 21.1753 59.9068 21.2997 59.698 21.2997Z" fill="#EBDFCE"/>
<path d="M63.6341 15.288C63.3662 14.9526 62.341 14.1426 61.9445 14.0033C61.6724 13.9063 61.5775 12.9697 61.8664 12.9697C62.8157 12.9676 64.1171 13.9063 64.5053 14.8049C64.7921 15.4694 64.1825 15.9735 63.6341 15.288ZM64.9588 14.4442C64.0243 13.1955 63.2734 12.3749 61.5437 11.7674C61.145 11.6261 60.7675 11.1367 61.01 10.9806C61.4593 10.6895 62.2967 11.0439 62.5309 11.1557C63.4464 11.5923 64.2943 12.0606 65.0073 12.8896C65.4102 13.3579 65.8827 14.3345 65.6907 14.5476C65.3996 14.8703 65.0621 14.5813 64.9588 14.4442ZM65.2203 24.8097C65.0685 24.565 65.9143 24.2127 65.9903 23.3183C66.0156 23.0315 66.8889 22.694 66.9078 22.9808C66.9796 24.0988 66.5851 24.5059 66.1464 24.8244C65.6675 25.1683 65.3174 24.97 65.2203 24.8097ZM66.9585 25.5733C66.5682 25.4847 66.7243 25.0649 66.9057 24.8413C67.5976 23.9933 67.6609 23.5398 67.5892 22.6159C67.5533 22.1603 67.9267 21.7532 68.1039 21.9789C68.3338 22.2742 68.5067 23.1369 68.3422 23.8457C67.9541 25.5311 67.0808 25.6007 66.9585 25.5733ZM63.0034 15.7794C63.0667 15.8617 63.1278 15.9503 63.1532 16.0494C63.1806 16.1507 63.1679 16.2667 63.1004 16.3447C63.054 16.3975 62.9907 16.4291 62.9275 16.4587C62.8072 16.5156 62.687 16.5726 62.5562 16.5958C62.4254 16.619 62.2841 16.6042 62.1765 16.5283C62.0415 16.4312 61.9867 16.2583 61.9508 16.098C61.8896 15.8364 61.8517 15.5706 61.8327 15.3027C61.8285 15.2394 61.8264 15.1698 61.8559 15.1129C62.0352 14.7754 62.881 15.6255 63.0034 15.7794Z" fill="#E0D1C5"/>
<path d="M63.6341 29.6973C62.3937 29.48 61.1492 28.9949 59.9321 28.4422C59.6516 28.3072 59.3816 28.1659 59.1116 28.0225C58.6644 28.2756 58.1834 28.4802 57.6814 28.6321C59.0124 29.3767 60.1177 29.7796 60.9277 30.02C62.3136 30.4335 62.881 30.3575 62.9991 30.3407C63.4548 30.2711 63.9167 29.7543 63.6341 29.6973Z" fill="#EBDFCE"/>
<path d="M48.0605 16.6549C47.9234 16.4017 47.7188 15.7731 47.7188 15.7731C47.356 15.7289 47.0586 16.1971 47.1915 16.9924C47.2695 17.4501 49.3346 22.6539 55.4391 27.1785C56.2407 27.7734 56.9895 28.248 57.6793 28.634C57.6793 28.634 58.1644 28.9546 58.8268 28.6129C59.3879 28.3239 59.1094 28.0223 59.1094 28.0223C54.184 25.4278 50.8111 21.7068 48.0605 16.6549Z" fill="#FBF3E7"/>
<path d="M65.0199 28.5519C63.5286 28.0751 62.0816 27.5056 60.6978 26.8201C60.4173 27.1154 60.1093 27.3833 59.7781 27.6237C60.0713 27.7883 60.3624 27.9465 60.6514 28.1005C61.5606 28.5856 65.1971 30.1676 65.0199 28.5519Z" fill="#EBDFCE"/>
<path d="M60.6957 26.8199C55.7598 24.3751 51.5115 20.5445 48.8284 14.0771C48.1217 14.2332 48.1956 15.0622 48.2968 15.3322C50.6952 21.7131 55.5531 25.2547 59.776 27.6236C59.776 27.6236 60.4426 27.9906 60.8835 27.4274C61.1471 27.0878 60.6957 26.8199 60.6957 26.8199Z" fill="#FBF3E7"/>
<path d="M66.0809 27.1912C64.5179 26.7461 63.0603 26.128 61.7082 25.3982C61.5361 25.7321 61.3342 26.0498 61.1049 26.3474C62.1849 26.8958 63.3261 27.3599 64.5242 27.708C66.0387 28.1446 66.3657 27.2397 66.0809 27.1912Z" fill="#EBDFCE"/>
<path d="M50.1256 12.7609C49.9527 12.396 49.2228 12.9508 49.3494 13.5266C50.1362 16.3912 53.7706 22.8374 61.1049 26.3474C61.1049 26.3474 61.6913 26.6048 61.9149 26.1154C62.1385 25.6239 61.7103 25.3982 61.7103 25.3982C54.0048 21.2997 51.0791 15.4293 50.1256 12.7609Z" fill="#FBF3E7"/>
<path d="M67.1251 25.8729C65.3617 25.2232 63.786 24.5208 62.3558 23.7297C62.3453 23.812 62.3326 23.8943 62.3136 23.9702C62.2398 24.2887 62.1406 24.5946 62.0225 24.8878C63.2692 25.5269 64.6107 26.0733 66.0578 26.5268C67.2137 26.8495 67.3951 25.9762 67.1251 25.8729Z" fill="#EBDFCE"/>
<path d="M62.3558 23.7298C57.1414 20.8632 54.5068 17.5873 51.6022 11.9321C51.2478 11.3626 50.3851 11.8836 50.7204 12.489C53.2812 18.043 56.015 21.4897 62.0225 24.89C62.0225 24.89 62.4823 25.0693 62.6595 24.5335C62.7713 24.196 62.6658 23.8986 62.3558 23.7298Z" fill="#FBF3E7"/>
<path d="M58.8753 35.1563C58.291 35.1563 57.6983 35.1415 57.1056 35.1078C53.45 34.9053 48.8853 33.6481 47.5058 31.3594C47.0734 30.6443 45.7592 28.4654 48.4402 24.0568C49.9442 21.5846 53.5576 16.3027 52.5683 11.2571C52.5683 11.2571 52.4312 10.7719 52.8636 10.5884C53.5027 10.3184 53.6061 10.8668 53.6061 10.8668C54.8696 16.7541 51.0938 22.1119 49.5139 24.7086C47.4657 28.0772 48.0015 29.7457 48.5816 30.7076C49.2524 31.8172 52.0937 33.57 57.1752 33.8506C63.5624 34.2029 67.471 32.6061 67.8718 32.0344C67.8866 31.8193 67.7474 31.5661 65.3511 31.5155C64.6867 31.5007 64.7478 30.5304 65.0811 30.4925C66.0556 30.3786 67.8887 30.3786 68.7282 30.9861C69.1522 31.294 69.3294 31.7475 69.1628 32.2749C68.6628 33.8548 64.2142 35.1563 58.8753 35.1563Z" fill="#F1EAE0"/>
</svg>
