<svg width="557" height="660" viewBox="0 0 557 660" fill="none" xmlns="http://www.w3.org/2000/svg">
<path d="M1 650.219C1 650.219 101.696 621.893 129.5 587.719C157.304 553.546 253.331 592.157 241.5 549.719C229.669 507.282 117.676 517.345 91.5 475.219C65.3236 433.093 170.51 426.816 199 386.219C227.49 345.622 204.299 265.969 241.5 270.719C278.701 275.469 296.032 316.406 331.5 304.219C366.968 292.032 383.897 251.218 381 217.219C378.103 183.221 335.723 190.079 331.5 156.219C327.277 122.36 365.518 113.425 394 99.2192C422.482 85.0133 454.578 31.3722 480 42.5106C505.422 53.6491 500.398 74.7506 513.5 99.2191C526.602 123.688 561.729 149.039 555 181.011C548.271 212.982 538.171 239.917 526 270.719C513.829 301.521 422.077 338.951 427 371.011C431.923 403.07 499.442 398.967 496 431.219C492.558 463.471 428.262 433.594 417 475.219C405.738 516.844 523.857 564.421 496 597.719C468.143 631.017 373.329 580.721 342.5 597.719C311.671 614.718 286.5 658.719 286.5 658.719" stroke="#7F675E"/>
<path d="M366.359 659C366.359 659 270.656 635.787 306.859 602.5C343.061 569.213 369.499 529.582 351.859 490.5C334.218 451.418 288.4 456.761 263.359 434.5C238.318 412.239 226.859 360.5 252.359 335C277.859 309.5 363.044 331.528 384.359 275.5C405.674 219.472 377.459 110.554 384.359 78.5C391.259 46.446 439.967 44.349 461.859 31.5C483.751 18.651 461.859 1 461.859 1" stroke="#7F675E"/>
<path d="M171 638C171 638 89.039 620.244 76.9999 578.5C64.9609 536.756 194.879 570.273 247 543.5C299.121 516.727 284.216 433.334 324.5 409.5C364.784 385.666 461.948 414.71 467.5 369C473.052 323.29 409.089 313.518 407.5 267.5C405.91 221.482 467.5 157.5 467.5 157.5" stroke="#7F675E"/>
</svg>
