<svg width="782" height="808" viewBox="0 0 782 808" fill="none" xmlns="http://www.w3.org/2000/svg">
<path d="M460.038 89.6651C460.038 89.6651 533.267 155.509 485.605 167.632C437.942 179.756 395.865 202.096 392.849 244.869C389.833 287.641 432.7 304.679 444.18 336.156C455.66 367.634 441.197 418.614 406.651 428.961C372.105 439.308 307.572 379.498 262.224 418.703C216.876 457.908 190.032 567.172 168.748 592.114C147.465 617.055 103.594 595.789 78.2271 596.712C52.8598 597.635 63.755 623.56 63.755 623.56" stroke="#7F675E"/>
<path d="M777.482 270.756C777.482 270.756 675.403 247.911 634.712 264.799C594.022 281.687 527.815 202.135 518.093 245.105C508.371 288.075 611.728 332.356 614.781 381.859C617.835 431.361 522.265 386.976 477.923 409.193C433.581 431.411 416.201 512.53 385.708 490.697C355.215 468.864 359.384 424.605 322.381 418.504C285.377 412.402 251.109 440.296 237.527 471.598C223.944 502.9 264.504 516.973 252.155 548.782C239.807 580.591 201.904 570.31 170.093 569.3C138.281 568.291 84.5757 600.279 67.4826 578.412C50.3895 556.544 64.8245 540.353 64.902 512.598C64.9795 484.843 46.0874 445.859 67.1811 420.909C88.2748 395.959 109.946 377.041 135.275 355.703C160.604 334.364 259.13 344.952 270.008 314.396C280.887 283.839 219.506 255.413 237.839 228.656C256.173 201.9 298.593 258.707 328.258 227.41C357.922 196.113 276.522 98.186 316.843 82.0933C357.164 66.0007 416.76 155.263 451.963 154.929C487.166 154.594 530.201 127.805 530.201 127.805" stroke="#7F675E"/>
<path d="M622.04 200.848C622.04 200.848 685.761 255.368 676.552 297.826C667.342 340.283 568.884 249.134 510.3 247.97C451.717 246.806 425.267 327.286 378.498 329.151C331.729 331.016 259.98 259.346 233.404 296.949C206.828 334.551 258.494 373.502 238.058 414.764C217.622 456.027 133.048 483.123 133.048 483.123" stroke="#7F675E"/>
</svg>
